<?xml version="1.0" encoding="UTF-8"?><svg id="Layer_2" xmlns="http://www.w3.org/2000/svg" viewBox="0 0 256 255.08"><g id="Layer_1-2"><path d="M256,46.08v157l-61,52h-1c-21.87-7.65-43.93-14.92-66-22-1.15-12.77,1.53-28.1.05-40.55-.26-2.22-1.59-3.42-2.05-5.45,16.65,1.99,33.33,4.17,50,6-1.87,4.32,6.9,4.36,6,1,3.3.35,6.71.03,9.98.97.16-.98-.05-2,.02-2.97,4.82,1.02,4.8-7.19,5.04-10.46,1.48-20.51,1.96-58.92-.03-79.05-.18-1.78-1.07-8.08-4.01-7.5.09-1.32-.02-2.67,0-4,.04-3.1.79-7.73-1-10v-2c8.28,2.4,5.75-16.46,0-17v-5c21.29-3.86,42.72-7.1,64-11Z" style="fill:#0174d0;"/><path d="M128,10.08l1,59c-32.3,6.26-64.57,12.98-96.9,19.1l-.1,87.9c-10.38-1.83-21.45-7.09-32-9v-74c2.23-2.43,7.64-8.11,8-11,1.63-.54,2.1-1.86,3-3,4.48-5.71,8.47-11.87,13.28-17.32,27.69-12.2,57.44-21.79,84.72-34.68,1.1-.52,2.94-.39,4.02-1.47,2.45-2.45.2-20.86.99-25.53.94-1.1,12.51,8.91,13.99,9.99Z" style="fill:#0367b5;"/><path d="M126,187.08c.46,2.03,1.79,3.23,2.05,5.45,1.48,12.45-1.2,27.78-.05,40.55-10.91-3.5-21.85-7.7-33-10-1.11,1.1,1.56,27.4-1,31l-62-78c29.4,5.17,63.84,7.39,94,11Z" style="fill:#0367b5;"/><path d="M193,95.08c2.94-.59,3.83,5.71,4.01,7.5,1.99,20.13,1.52,58.53.03,79.05-.24,3.27-.22,11.48-5.04,10.46,2.28-29.47,0-64.84,0-95,.97-.27.94-1.15,1-2Z" style="fill:#1b6eaf;"/><path d="M192,79.08v-17c5.75.54,8.28,19.4,0,17Z" style="fill:#367db7;"/><path d="M182,194.08c.9,3.36-7.87,3.32-6-1,2.22.24,4.45.83,6,1Z" style="fill:#267bbe;"/><path d="M193,91.08h-1v-10c1.79,2.27,1.04,6.9,1,10Z" style="fill:#367db7;"/><path d="M193,95.08c-.06.85-.03,1.73-1,2v-6h1c-.02,1.33.09,2.68,0,4Z" style="fill:#4e86b2;"/><path d="M128,10.08c18.23,13.27,36.68,26.29,54.89,39.61,2.5,1.83,7.26,4.37,8.11,7.39-20.67,3.76-41.36,8-62,12l-1-59Z" style="fill:#0375d0;"/><path d="M11,79.08c-.9,1.14-1.37,2.46-3,3,.07-.54-2.71-3.23,3-3Z" style="fill:#fcfdfe;"/></g></svg>