<?xml version="1.0" encoding="UTF-8"?><svg id="Layer_2" xmlns="http://www.w3.org/2000/svg" viewBox="0 0 225 225"><g id="Layer_1-2"><path d="M53,0c14.56,2.73,28.09,11.09,35.18,24.32,16.83,31.36-5.53,67.92-40.19,69.69.06,8.78,10.15,17.1,18.5,17.99,11.9,1.28,7.86-1.59,11.68-9.32,3.49-7.05,12.23-15.29,20.05-17.04,3.01-.67,3.73.43,5.19.36.36-.02.37-2.93,6.15-2.08,1.92.28,1.32,1.99,1.87,1.95,9.76-.65,20.59,6.69,25.38,15.81,1.47,2.8,2.83,9.84,4.18,11.32,1.52,1.68,16.61,1.6,18,0,.95-1.09,2.91-9.51,4.8-12.7,15.35-25.87,54.61-18.53,61.2,10.7v12c-8.59,36-58.78,35.96-65.04-.96l-19.38-.1c-7.57,36.91-57.28,37.36-65.52.5-10.78.08-19.53-3.01-28.06-9.44v51.5c0,9.92,11.63,17.83,19.32,21.5.72.34.56,1.91,1.11,1.88,10.98-.65,7.23-3.09,11.18-10.76,3.51-6.82,11.94-14.88,19.62-16.47,2.69-.56,4.37.69,6.1.39.42-.07.63-3.34,6-2.02.78.19.58,1.87,1.11,1.84,7.38-.29,4.19.47,8.21,2.04,3.03,1.19,3.78-.16,8.35,3.58,22.85,18.67,12.97,52.59-15.01,58.51h-11c-13.83-3.67-23.86-13.48-26.94-27.56-17.18-.69-34.73-13.87-37.06-31.44,1.61-.95,1.64-4.99,0-6-1.03-22.15.88-44.68-.14-66.86C17.93,88.74,4.27,73.76,0,54v-15C5.08,18.7,18.7,5.08,39,0h14ZM55.33,83.37C114.15,62.51,73.21-12.23,27.31,14.81-2.27,32.22,7.01,79.27,40.61,83.89c1.58.22,13.06,1.23,13.74,1.14.62-.08.66-1.55.98-1.66ZM105.24,141.77c.66.34,10.48-2.34,12.05-2.98,20.87-8.49,16.92-41.69-4.88-44.7-29.11-4.03-39.6,33.82-12.43,45.44,1.37.59,3.05.15,4.29.52.85.26.77,1.61.97,1.71ZM189.25,141.73c.72.38,9.4-1.74,10.75-2.24,19.15-7.08,21.63-34.17,3.04-43.03-24.16-11.53-45.05,16.85-28.46,36.46,4.6,5.44,7.75,5.17,13.66,7.15.8.27.79,1.54,1.01,1.66ZM105.24,216.77c.66.34,10.48-2.34,12.05-2.98,20.87-8.49,16.92-41.69-4.88-44.7-29.11-4.03-39.6,33.82-12.43,45.44,1.37.59,3.05.15,4.29.52.85.26.77,1.61.97,1.71Z" style="fill:#2289fe;"/><path d="M225,186v13c-4.4,13.21-13.4,22.46-27,26h-13c-9.1-4.46-16.5-7.51-21.53-16.97-1.49-2.8-3.11-10.57-3.56-10.94-1.21-1-9.11,1.78-9.73-3.82-.88-7.93,7.18-3.69,9.34-6.26,1.07-1.27,2.29-7.72,3.66-10.34,3.88-7.41,14.06-15.5,22.41-16.59,19.94-2.62,33.45,7.26,39.42,25.92ZM186.74,169.24c-24.95,4.24-23.63,45.65,4.91,46.69,32.63,1.18,31.9-52.94-4.91-46.69Z" style="fill:#7ab8fe;"/><path d="M225,199v26h-27c13.6-3.54,22.6-12.79,27-26Z" style="fill:#fdfdfe;"/><path d="M159,113c-1.39,1.6-16.48,1.68-18,0h18Z" style="fill:#1083fe;"/><path d="M38,166c-.24-1.83.09-4.06,0-6,1.64,1.01,1.61,5.05,0,6Z" style="fill:#1083fe;"/><path d="M34.48,23.5c7.56-1.34,17.1,5.85,23.43,10.09,8.18,5.47,20.34,11.88,8.01,21.84-3.64,2.94-18.68,12.28-22.88,14.12-7.91,3.46-14.04.74-15.04-8.04-.7-6.18-.87-25.05.06-30.94.48-3.07,3.29-6.5,6.42-7.06ZM37,32v29c1.46.26,2.45-.25,3.72-.79,3.69-1.56,15.51-9.26,19.02-11.93.64-.49,1.72.14,1.27-1.77l-24.01-14.51Z" style="fill:#2289fe;"/><path d="M96.74,185.18c9.46-1.91,11.62,11.83,3.54,13.62-10.16,2.25-11.87-11.94-3.54-13.62ZM96.01,193.99c.65.65,5.54-.03,4.99-2.48-.87-3.83-7.28.2-4.99,2.48Z" style="fill:#238afe;"/><path d="M115.74,185.16c8.57-1.55,11.81,11.78,3.54,13.64-10.23,2.3-12.29-12.06-3.54-13.64ZM115.01,190.01c-.61.58.02,5.6,2.48,4.99,5.32-1.33.18-7.53-2.48-4.99Z" style="fill:#238afe;"/><path d="M120.75,107.25c1.3,1.3,1.52,4.06.76,5.73-.57,1.26-16.15,16.26-17.49,16.63-3.88,1.07-18.08-12.74-10.36-15.45,5.75-2.01,7.66,4.13,9.7,3.77,3.68-.65,11.38-16.69,17.39-10.68Z" style="fill:#2088fe;"/><path d="M180.78,113.23c.46.21,5.1,4.96,6.58,4.71,3.31-.56,10.33-14.63,16.63-11.47,9.17,4.6-12.28,18.41-14.46,22.6-2.79,3.61-12.77-6.92-13.34-8.78-1.06-3.47,1.25-8.56,4.58-7.06Z" style="fill:#238afe;"/></g></svg>