<?xml version="1.0" encoding="UTF-8"?><svg id="Layer_2" xmlns="http://www.w3.org/2000/svg" viewBox="0 0 1374.27 1335.06"><g id="Layer_1-2"><path d="M673.28.81c17.6-2.26,35.56.24,51.85,7.13l479.39,228.61c37.27,20.3,43.76,41.39,53.88,80.12,43.1,164.96,72.69,333.89,114.85,499.15,4.25,35.97-4.97,54.12-25.55,81.44-102.08,135.5-218.29,263.6-320.92,399.08-15.8,17.4-31.32,30-54.93,35.07-189.97,4.57-381.95,5.32-571.82-.38-13.73-3.51-26.03-10.29-37.24-18.76-92.35-112.18-184.48-225.16-274.99-339.01-21.98-27.65-78.64-89.8-85.49-120.51-4.55-20.39-1.62-31.28,2.07-50.82,32.7-173.47,84.18-349.14,122.32-521.68,14.44-30.59,36.14-39.4,64.34-53.66C342.62,160.85,487.45,77.89,639.05,12.58c10.36-4.46,23.12-10.34,34.23-11.77ZM720.03,320.04c1.69-9.45-6.44-14.55-8.75-20.25-9.98-24.6,9.68-74.26,4.04-102.04-3.86-19.02-25.41-29.54-42.21-19.11-33.55,20.83,1.38,85.35-8.25,117.75-1.35,4.53-7.37,9.03-8.61,13.39-.86,3.02-.09,10.16-.46,10.53-1.29,1.3-30.29,3.46-36.38,4.62-51.54,9.84-101.25,29.84-144.26,59.74-20.76,14.43-38.62,32.24-58.48,47.75-11.17-5.45-19.92-2.43-30.75-9.26-24.46-15.43-52.91-65-81.14-65.02-19.7,0-30.48,17.85-26.14,36.3,5.61,23.84,62.07,43.65,81.17,62.82,8,8.03,5.27,10.81,9.09,18.91,1.51,3.19,6.73,4.73,6.83,9.06.07,3.11-25.04,46.33-28.89,55.13-27.38,62.47-38.14,134.35-27.06,201.9-14.83,1.08-16.13,13.09-29.58,17.47-26.94,8.77-79.47,1.84-98.24,19.76-19.63,18.74-3.98,49.26,22.71,48.86,25.33-.38,71.9-31.74,95.16-27.27,4.37.84,8.84,4.82,13.13,5.21,3.41.31,10.17-2.47,10.78-2.01,1.1.83,7.33,21.91,9.05,25.99,32.64,76.92,78.86,128.09,147.11,174.93,2.21,1.52,7.48,2.92,7.73,3.25,2,2.74-3.58,9.37-3.81,12.93-.69,10.57,4.19,11.98-1.68,26.29-10.38,25.31-47.31,61.55-44.21,87.43,2.93,24.53,33.99,31.64,49.53,13.89,18.12-20.7,22.45-80.27,41.24-94.75,3.8-2.93,8.24-2.85,10.47-4.54,2.5-1.89,4.3-10.3,7.8-11.14,2.48-.59,40.93,12.98,48.77,14.76,51.15,11.6,104.68,12.13,156.09,2.05,10.09-1.98,53.84-16.34,58.62-15.21,2.31.55,2.12,5.9,4.3,8.12,2.57,2.62,7.66,2.66,10.98,5.04,17.4,12.49,24.21,74.93,40,94,18.8,22.71,55.32,8.51,51.64-21.49-2.72-22.18-37.46-57.68-46.56-83.58-4.63-13.16.03-10.67.49-19.32.24-4.44-5.62-7.89-2.63-12.63,1.69-2.68,23.88-15.33,28.92-19.18,46.41-35.48,86.32-80.87,112.53-133.47,3.96-7.95,19.2-50.92,21.55-52.51,3.48-2.36,7.57.91,10.85.59s6.91-4.2,10.7-5.01c32.29-6.84,101.13,51.41,124.24,12.27,5.48-9.28,5.45-18.1,0-27.4-18.28-31.19-84.1-12.17-111.59-30.4-7.61-5.05-7.79-13.29-20.25-14.09,9.59-66.75-.68-136.57-27.51-198.16-3.99-9.17-30.41-54.44-30.33-57.7.1-4.22,5.24-5.93,6.84-9.09,2.15-4.22,2.52-9.22,4.73-13.27,14.12-25.89,118.63-53.82,80.49-95.67-33.32-36.56-76.07,41.41-102.22,55.94-9.67,5.37-13.72,3.34-22.36,5.63-3.34.89-6.68,5.9-10.21,5.22-2.64-.51-19.07-19.09-23.26-22.74-58.92-51.23-133.81-83.26-211.77-91.23Z" style="fill:#336ce5;"/><path d="M965.76,790.31c-17.6,51.71-51.38,100.62-95.04,133.95-3.83,2.93-21.34,16.49-24.87,13.98l-57.18-141.85c-4.26-19.37,13.19-33.56,32.07-30.05l145.03,23.98Z" style="fill:#336ce5;"/><path d="M434.73,536.42l114.08,101.82c12.23,14.64,5.68,36.14-12.51,41.59l-141.3,40.33c-2.42-.87-2.82-2.62-3.23-4.88-1.78-9.73-.82-38.98-.09-50.07,2.84-43.38,19.35-92.54,43.05-128.79Z" style="fill:#336ce5;"/><path d="M651.75,396.3c.37,3.82-1.81,7.26-1.99,11-2,43.21-1.75,91.2-6.25,133.75-2.41,22.8-16.42,36.09-39.54,26.05l-121.96-85.03c-2.68-4.61,7.43-12.62,10.81-15.72,42.05-38.55,103.04-62.09,158.93-70.05Z" style="fill:#336ce5;"/><path d="M981.75,720.3l-143.94-41.04c-18.51-6.37-24.31-28.34-11.09-43l112.05-99.92c34.55,53.14,49.69,120.92,42.98,183.97Z" style="fill:#336ce5;"/><path d="M781.77,972.28c-60.94,17.98-127.66,20.53-188.04-1.01l73.53-134.48c8.74-10.5,22.71-12.77,34.45-5.43,30.82,44.1,54.5,93.5,80.07,140.92Z" style="fill:#336ce5;"/><path d="M553.31,766.86c20.27-1.92,35.39,8.58,32.27,30.27-19.88,41.82-33.5,96.78-55.4,136.58-1.18,2.14-1.94,4.86-5.1,4.38s-30.87-22.77-35.35-26.77c-35.61-31.79-62.84-73.54-79.98-117.98l5.11-2.94c45.51-4.24,93.46-19.28,138.44-23.54Z" style="fill:#336ce5;"/><path d="M891.53,482.07l-117.16,81.83c-16.91,12.7-37.33,5.6-42.47-14.73l-8.14-150.88c48.61,3.07,98.63,24.76,137.79,53.23,5.62,4.09,33.76,24.05,29.98,30.55Z" style="fill:#336ce5;"/><path d="M646.27,723.79c-1.43-1.76-10.3-41.97-9.93-44.2.64-3.9,25.86-34.37,30.47-35.24s42.44-.56,44.94.96c1.83,1.12,25.78,31.96,26.07,34.09.34,2.53-7.93,41-9.08,42.88s-37.3,19.83-40.12,20.01c-3.12.2-40.8-16.59-42.34-18.49Z" style="fill:#336ce5;"/></g></svg>