<?xml version="1.0" encoding="UTF-8"?><svg id="Layer_2" xmlns="http://www.w3.org/2000/svg" viewBox="0 0 2532.55 1514.62"><g id="Layer_1-2"><path d="M19.04,994.25c1.68-.16,2.81-.29,4.56-.18,13.47.82,57.16,29.11,71.98,37.08,475.88,255.97,1032.31,355.76,1569.01,271.66,204.4-32.03,404-90.07,594.44-169.56,46.86-7.12,69.47,36.51,30.14,68.14-70.36,56.58-172.78,110.37-255.24,147.76-656.06,297.47-1444.92,188.08-1988.69-281.66-9.82-8.48-38.22-31.19-42.72-41.28-6.49-14.58-.19-30.38,16.53-31.96Z" style="fill:#fe9901;"/><path d="M1086.25,619.98l3.5-10.98c45.17-188.02,86.51-377.22,134.63-564.37,4.93-10.72,10.41-16.7,22.08-19.92,18.64-5.15,75.29-4.25,96.27-2.71,31.01,2.29,35.93,17.19,43.03,43.97l131.5,560.01,2.12-3.37c48.48-179.33,89.94-360.73,139.15-539.85,8.62-31.36,10.79-57.94,49.23-60.77,22.67-1.67,63.6-2.08,85.97,0,18.56,1.73,20.24,14.43,18.25,30.21-69.96,231.3-142.55,462.06-215.56,692.44-6.46,16.5-19.35,23.89-36.69,25.31-29.52,2.41-62.12-1.75-91.97,0-19.7-1.76-28.89-12.24-34.78-30.22l-133.24-551.77c-.93,0-4.47,15.8-5.01,18-42.32,170.11-78.03,342.23-122.17,511.83-6.71,25.76-9.63,47.91-40.94,51.06-24.21,2.43-69.25,1.88-93.92.17-16.98-1.18-26.62-9.43-33.63-24.37-70.67-224.86-137.63-451-206.54-676.46-4.9-16.94-12.41-44.05,13.18-46.25,24.63-2.12,66.1-1.6,91.08,0,25.95,1.65,33.77,11.96,41.73,35.27l142.74,562.77Z" style="fill:#252f3e;"/><path d="M712.56,549.71c3.22,7.15,1.13,15.48,1.64,23.81,1.93,31.31,9.23,55.82,21.86,84.14,11.56,25.92,34.11,47.59,5.65,71.3-13.11,10.92-42.41,30.04-57.56,38.44-28.03,15.53-44.24-2.63-60.33-23.5-13.01-16.88-23.35-35.99-33.11-54.89-1.22-2.37-6.2-14.93-7.02-15.07-1.09-.18-2.21.25-3.02.98-50.01,60.08-120.87,101.04-199.06,110.94-80.36,10.17-166.54-3.87-222.89-65.86-73.1-80.43-72.26-225.31,0-306.03,88.7-99.08,233.57-96.15,354.54-74.51,20.35,3.64,40.5,9.46,60.98,11.53-1-56.57,5.31-125.84-25.59-175.92-45.4-73.58-181.64-62.27-253.83-44-36.25,9.17-66.9,23.6-101.37,34.63-19.54,6.25-37.17,10.27-39.25-16.18-1.16-14.74-1.61-52.07,1.49-65.59,4.44-19.39,27.21-28.57,43.87-36.13C293.09,5.39,416.55-9.5,517.43,10.3c136.1,26.71,190.04,117.74,194.86,251.14l.28,288.27ZM575.19,446.03c-25.41-5.08-50.81-10.7-76.58-13.92-97.63-12.21-240.14-13.59-246.41,117.33-5.28,110.2,74.29,143.11,171.25,123.25,45.88-9.4,86.18-29.27,116.76-65.24,38.13-44.84,35.52-105.78,34.98-161.42Z" style="fill:#252f3e;"/><path d="M2143.04.28c52.55-1.99,111.99,6.9,162.2,22.21,25.84,7.88,70.15,22.91,78.15,51.85,3.29,11.9,3.03,47.94,1.89,61.18-.86,9.93-5.62,20.23-16.53,21.46-15.79,1.79-43.99-14.24-59.99-20.02-57.84-20.89-131.99-29.08-192.7-18.67-45.74,7.85-91.01,30.17-94.85,82.15-4.05,54.79,24.91,79.38,70.68,100.4,115.18,52.89,290.52,53.97,329.07,201.93,13.3,51.02,6.45,111.92-19.54,157.89-86.25,152.53-315.14,151.61-460.69,99.35-18.14-6.51-53.35-20.9-62.66-38.34-7.57-14.17-7.47-58.41-5.81-75.17,2.47-24.87,22.12-21.5,40.24-15.26,37.03,12.77,65.68,27.15,105.56,35.44,80,16.63,260.77,27.72,269.18-89.2,4.55-63.29-43.05-87.31-94.22-105.76-112.95-40.73-250.81-51.18-299.52-180.48-19.56-51.94-17.13-115,9.58-163.92C1950.52,40.39,2048.24,3.86,2143.04.28Z" style="fill:#252f3e;"/><path d="M2337.04,944.28c41.5-1.26,149.93,3.69,181.68,30.73,14.62,12.45,14.28,47.4,13.56,65.52-3.76,94.94-47.34,213.69-102.23,290.77-14.23,19.98-56.17,71.04-78.13,78.87-17.26,6.16-26.72-4.26-22.21-21.21,6.39-24.01,22.15-54.44,31.2-78.81,21.39-57.66,49.1-134.65,53.31-195.69,3.38-48.99-22.7-60.91-65.65-67.32-88.65-13.24-185.15,4.6-273.83,12.63-29.03-4.46-17.35-27.08-.82-39.61,68.2-51.69,179.01-73.33,263.11-75.89Z" style="fill:#fe9901;"/></g></svg>