<?xml version="1.0" encoding="UTF-8"?><svg id="Layer_2" xmlns="http://www.w3.org/2000/svg" xmlns:xlink="http://www.w3.org/1999/xlink" viewBox="0 0 468.11 441.21"><defs><linearGradient id="linear-gradient" x1="243.13" y1="9.31" x2="377.07" y2="434.49" gradientUnits="userSpaceOnUse"><stop offset="0" stop-color="#3ccbf4"/><stop offset="1" stop-color="#2892df"/></linearGradient><linearGradient id="linear-gradient-2" x1="-30.89" y1="275.86" x2="370.48" y2="147.42" gradientUnits="userSpaceOnUse"><stop offset="0" stop-color="#0668bb"/><stop offset=".64" stop-color="#0e4885"/><stop offset=".71" stop-color="#0e4c8e"/><stop offset=".82" stop-color="#0e4b8c"/></linearGradient><linearGradient id="linear-gradient-3" x1="136.93" y1="390.37" x2="313.28" y2="329.8" gradientUnits="userSpaceOnUse"><stop offset="0" stop-color="#0078d4"/><stop offset=".77" stop-color="#0078d4"/><stop offset="1" stop-color="#005da5"/></linearGradient></defs><g id="Layer_1-2"><path d="M467.91,415.58c-6.96-21.98-14.6-43.74-21.91-65.58l-1-2c-.1-.3.1-.7,0-1-6.06-18.07-12.94-35.97-19-54-6.82-20.27-13.12-40.74-20-61-6.34-18.65-12.63-37.36-19-56-4.91-14.37-10.04-28.67-15-43-6.47-18.69-12.65-37.05-18-56-.45-.14-.91-.54-1-1-.13-.61.16-1.46,0-2-4.7-16.18-11.1-32.22-17-48-4.41-11.79-4.07-20.16-18-26h-156c7.73,3.5,11.92,4.52,15.88,12.62,7.47,15.28,15.25,43.18,21.12,60.38,4.85,14.22,9.23,28.74,14,43,6.92,20.69,13.66,41.46,21,62-.23,1.5.34,3.68,0,5,1.75.65,2.16,2.2,2.78,3.72,4.56,11.25,8.25,24.59,12.22,36.28,6.58,19.35,13.45,38.66,20,58,.4,1.18-.39,3.78,0,5,5.16,16.1,13.51,33.64,19,50,6.16,18.35,11.95,37.44,18,56,2.32,7.1,7.84,19.1,8,26,.09,3.83-.62,5.61-2,9-1.75,4.31-2.56,5.08-6,8-8.17,6.93-13.68,4.88-24,5,.6.14,1.95,1.66,3.38,1.07l162.16-.03c13.06-1.17,22.02-12.51,20.37-25.46Z" style="fill:url(#linear-gradient);"/><path d="M234,178c-7.34-20.54-14.08-41.31-21-62-4.77-14.26-9.15-28.78-14-43-5.87-17.2-13.65-45.09-21.12-60.38-3.96-8.1-8.14-9.12-15.88-12.62h-12c-14.16,6.19-14.59,16.61-19,29l-1,1c-.18.52.18,1.48,0,2l-1,1c-.18.52.18,1.48,0,2-13.05,37.55-25.24,75.36-38,113-5.96,17.58-12.03,35.36-18,53-5.77,17.04-12.24,33.94-18,51-11.57,34.23-22.38,68.79-34,103-6.07,17.87-12.31,36.01-18.73,53.77-.55,1.53-.72,3.25-2.27,4.23v13c5,7.25,9.16,13.27,18.59,14.91h114.83c18.69-2.54,20.57-26.62,25.59-40.91,5.19-14.79,10.65-33.97,16.69-47.8.77-1.75.68-3.34,3.31-3.2-.42-.46,1.15-2.88-1.83-1.17-9.78-12.61-23.63-22.45-35.18-33.32-2.59-2.44-12.77-12-13.54-14.46-5.13-16.49,12.61-13.88,22.55-14.06,15.97-.28,32.02.05,48,0,2.25-12.79,7.86-25.55,12-38,3.09-9.29,5.92-18.71,9-28,2.58-7.8,4.59-16.82,7-24,.67-1.98,2.3-6.23,3.1-8.2.25-.6,3.82-4.5,3.9-4.8.34-1.32-.23-3.5,0-5Z" style="fill:url(#linear-gradient-2);"/><path d="M306,392c-6.05-18.56-11.84-37.65-18-56-5.49-16.36-13.84-33.9-19-50h-12c-19.32,0-38.68-.06-58,0-15.98.05-32.03-.28-48,0-9.94.17-27.68-2.44-22.55,14.06.76,2.46,10.95,12.02,13.54,14.46,11.55,10.86,25.41,20.71,35.18,33.32,2.98-1.72,1.41.71,1.83,1.17,27.17,29.55,64.41,55.57,91.99,85.51,3.32,2.96,6.72,4.49,11.01,5.49,10.32-.12,15.83,1.93,24-5,3.44-2.92,4.25-3.69,6-8,1.38-3.39,2.09-5.17,2-9-.16-6.9-5.68-18.9-8-26Z" style="fill:url(#linear-gradient-3);"/></g></svg>