<?xml version="1.0" encoding="UTF-8"?><svg id="Layer_2" xmlns="http://www.w3.org/2000/svg" viewBox="0 0 1188.42 1188.41"><g id="Layer_1-2"><path d="M638.37,58.03l16.81,1.69,41-45.05c12.85-8.14,22.35-2.49,27.79,10.26,7.04,16.51,11.47,35.36,18.46,52.04l14.68,4.75,48.76-35.37c10.12-5.37,22.62-1.44,25.65,10.02l8.69,59.08c.37,1.19,13.7,8.41,16.24,7.57,15.44-6.44,30.73-15.71,46.08-22.01,9.42-3.87,18.29-7.17,25.67,2.68,5.84,7.8,3.12,11.03,2.97,18.95-.33,16.73-1.3,33.35-1.97,50.05,3.37,3.73,9.98,10.87,15.23,10.27,16.8-1.91,37.58-11.93,54.38-13.67,13.26-1.37,21.92,6.93,20.29,20.29l-13.95,56.15c.07,2.16,8.64,13.09,10.55,13.46l59.91-2.93c8.74,1.76,15.91,8.03,15.68,17.42-6.01,20.28-17.56,38.8-25.92,58.26-.35,2.07,4.96,14.08,6.32,15.26,4.26,3.73,50.85,6.27,59.56,9.44,11.99,2.75,16.24,15.32,10.8,25.88l-35.37,48.76,5.2,14.98,53,18.75c11.28,4.2,15.99,15.36,9.78,26.13l-46.22,42.66,1.95,16.19,52.84,31.66c7.03,7.12,6.94,18.76-.54,25.53l-52.3,31.2-1.95,16.19,46.22,42.66c4.57,8.12,3.6,17.15-3.96,22.95-18.8,9-39.27,14.59-58.82,21.93l-5.2,14.98,35.37,48.76c5.44,10.56,1.19,23.13-10.8,25.88-8.71,3.17-55.3,5.71-59.56,9.44-1.35,1.18-6.67,13.19-6.32,15.26l24.88,53.21c3.94,10.98-3.91,20.48-14.64,22.47l-59.91-2.93c-1.9.36-10.48,11.29-10.55,13.46l13.95,56.15c2.13,12.53-7.77,22.42-20.29,20.29l-56.15-13.95c-2.16.07-13.09,8.64-13.46,10.55l2.93,59.91c-1.76,8.74-8.03,15.91-17.42,15.68-20.28-6.01-38.8-17.56-58.26-25.92-2.07-.35-14.08,4.96-15.26,6.32-3.68,4.21-6.38,50.92-9.44,59.56-2.75,11.99-15.32,16.24-25.88,10.8l-48.76-35.37-14.98,5.2-18.75,53c-4.2,11.28-15.36,15.99-26.13,9.78l-43.31-46.21-15.54,1.95-31.66,52.84c-7.12,7.03-18.76,6.94-25.53-.54l-31.2-52.3-15.54-1.95-43.31,46.21c-8.12,4.57-17.15,3.6-22.95-3.96-9-18.8-14.59-39.27-21.93-58.82l-15-5.22c-1.4-.13-4.93,2.76-6.39,3.73-13.1,8.7-29.44,24.8-42.34,31.65-10.52,5.59-23.16,1.09-25.88-10.8-3.06-8.65-5.76-55.35-9.44-59.56-1.18-1.35-13.19-6.67-15.26-6.32l-53.21,24.88c-10.26,4.12-21.23-4.22-22.47-14.64-.91-7.71,1.6-22.48,1.96-30.86.42-9.7.29-19.37.97-29.05-.36-1.9-11.29-10.48-13.46-10.55l-56.15,13.95c-12.53,2.13-22.42-7.77-20.29-20.29l13.95-56.15c-.07-2.16-8.64-13.09-10.55-13.46l-59.91,2.93c-8.74-1.76-15.91-8.03-15.68-17.42,6.01-20.28,17.56-38.8,25.92-58.26.35-2.07-4.96-14.08-6.32-15.26-4.21-3.68-50.92-6.38-59.56-9.44-11.99-2.75-16.24-15.32-10.8-25.88l35.37-48.76-5.2-14.98-53-18.75c-11.28-4.2-15.99-15.36-9.78-26.13l46.21-43.31-1.95-15.54-52.84-31.66c-7.03-7.12-6.94-18.76.54-25.53l52.3-31.2,1.95-15.54-46.21-43.31c-4.57-8.12-3.6-17.15,3.96-22.95,18.8-9,39.27-14.59,58.82-21.93l5.2-14.98-35.37-48.76c-5.44-10.56-1.19-23.13,10.8-25.88,8.65-3.06,55.35-5.76,59.56-9.44,1.35-1.18,6.67-13.19,6.32-15.26l-24.88-53.21c-3.94-10.98,3.91-20.48,14.64-22.47l59.91,2.93c1.9-.36,10.48-11.29,10.55-13.46l-13.95-56.15c-1.63-13.37,7.05-21.66,20.29-20.29,16.8,1.74,37.58,11.76,54.38,13.67,5.25.6,11.86-6.54,15.23-10.27-.76-16.7-1.64-33.33-1.97-50.05-.16-7.92-2.87-11.15,2.97-18.95,7.37-9.85,16.25-6.55,25.67-2.68,15.33,6.29,30.7,15.49,46.08,22.01,3.03.51,15.33-5.44,16.2-8.38,4.1-17.98,3.78-40.03,8.5-57.5,3.32-12.28,14.75-16.11,25.88-10.8l47.64,35.28,15.35-4.37,19.82-54.43c4.35-11.2,16.2-15.33,26.36-8.65l42.76,45.76,15.54-1.95,31.66-52.84c6.14-6.34,16.63-6.89,23.46-1.39l33.24,54.26ZM590.99,107.48c-44.21,4.3-38.65,71.78,6.72,67.71s37.8-72.04-6.72-67.71ZM1029.21,628.2c1.3-29.81,1.84-59.91-3.11-89.39-1.59-1.87-3.84-2.88-5.87-4.13-20.5-12.56-50.44-21.73-69.35-35.65-12.97-9.55-17.06-25.9-11.16-40.82l35.72-69.28.33-5.77c-55.77-100.68-152.1-177.82-263.35-208.68-9.44-2.62-25.64-7.53-34.87-8.2-1.5-.11-2.94-.42-4.33.43l-58.52,58.48c-12.97,9.01-28.03,9.01-41,0l-57.94-58.05-3.04-1.04c-70.76,13.05-138.4,44.82-193.99,90.11-3.28,2.67-48.09,42.09-45.52,43.97l475.54-.03c111.58,9.35,198.4,137.45,118.43,234.51-14.04,17.05-32.18,30.62-50.97,42.02,23.41,19.57,43.21,47.56,53.74,76.26,9.96,27.13,8.09,51.07,41.47,61.53,39.18,12.28,65.18-14.08,67.77-51.79.61-8.82-1.47-22.13.03-29.97.25-1.31,2.82-4.52,3.48-4.52h46.5ZM158.96,420.46c-43.21,5.63-36.17,72.49,8.64,67.63,44-4.78,36.51-73.51-8.64-67.63ZM1020.98,420.48c-43.17,4.72-37.69,70.92,6.71,67.7s38.99-72.69-6.71-67.7ZM311.21,436.2h-74c9.77,17.8,22.1,36.57,7.41,55.91-10.4,13.69-55.86,31.1-73.09,40.91-3.3,1.88-9.25,4.35-10.11,7.89-2.93,12.05-.85,27.42-3.25,39.75-.47,36.19,2.58,72.42,10.35,107.73,2.21,10.05,4.53,21.82,9.19,30.81h133.5v-283ZM503.21,436.2v77.5l3.45,1.55c46.99-2.22,96.4,2.78,143.09,0,26.61-1.59,68.59-16.92,55.22-51.3-5.73-14.74-30.16-27.74-45.26-27.74h-156.5ZM943.21,854.2h-184.5c-.91,0-9.83-2.88-11.49-3.51-76.39-29.08-26.11-204.63-132.52-211.48-35.19-2.26-72.61,1.71-108.04-.06l-3.45,1.55v77l1.5,1.5h98c.17,0,1.76,1.54,1.98,2.02v130.97c-.22.47-1.81,2.02-1.98,2.02H245.21l11.02,15.48,20.68,23.55,79.75-12.06c17.14-2.06,31.91,7.58,37.24,23.84l13.94,83.29c87.32,41.56,187.56,52.26,282.17,31.23,31.24-6.94,61.65-17.62,90.54-31.23l13.94-83.29c5.33-16.26,20.11-25.9,37.24-23.84l79.75,12.06,20.68-23.55,11.02-15.48ZM326.04,926.44c-39.61,1.89-42.65,61.32-4.88,67.31,51.89,8.22,53.9-69.65,4.88-67.31ZM859.04,926.44c-45.53,2.19-42.18,72.37,5.66,67.75,42.01-4.05,37.29-69.81-5.66-67.75Z"/></g></svg>