<?xml version="1.0" encoding="UTF-8"?><svg id="Layer_2" xmlns="http://www.w3.org/2000/svg" viewBox="0 0 1200 1200"><g id="Layer_1-2"><path d="M1160,0c21.01,3.57,34.91,17.52,40,38v1125c-5.73,19.5-18.11,32.07-38,37H37c-5.03-2.88-10.52-3.72-15.69-6.81-12.13-7.23-18.57-19.71-21.31-33.19V40C3.07,19.7,19.27,2.48,40,0h1120ZM667,540H240v98h152v437.5c0,.11,1.39,1.5,1.5,1.5h120.5v-439h153v-98ZM1060,560c-13.61-4.1-27.04-8.52-40.99-11.51-108.16-23.22-289.81-9.14-305.01,131.02-9.23,85.16,38.52,135.68,110.63,169.35,36.97,17.26,121.15,42,129.92,87.08,7.4,38.08-27.2,56.58-59.33,61.78-48.04,7.78-101.77-4.13-143.89-27.55l-36.33-24.17v118.5c32.18,16.75,70.43,24.96,106.51,28.49,117.9,11.55,265.12-14.78,262.53-162.54-1.82-104.05-85.44-133.08-164.72-169.28-33.13-15.13-100.15-46.27-72.12-93.48,30.34-51.12,148.66-32.54,192.82-7.22l19.98,11.52v-112Z" style="fill:#3178c5;"/><path d="M1060,560v112l-19.98-11.52c-44.16-25.32-162.48-43.9-192.82,7.22-28.02,47.21,39,78.35,72.12,93.48,79.27,36.2,162.89,65.23,164.72,169.28,2.59,147.75-144.64,174.09-262.53,162.54-36.08-3.53-74.32-11.74-106.51-28.49v-118.5l36.33,24.17c42.12,23.42,95.85,35.33,143.89,27.55,32.14-5.2,66.74-23.7,59.33-61.78-8.76-45.09-92.94-69.82-129.92-87.08-72.11-33.67-119.87-84.19-110.63-169.35,15.19-140.16,196.84-154.24,305.01-131.02,13.95,2.99,27.38,7.41,40.99,11.51Z" style="fill:#fdfefe;"/><path d="M667,540v98h-153v439h-120.5c-.11,0-1.5-1.39-1.5-1.5v-437.5h-152v-98h427Z" style="fill:#fdfefe;"/></g></svg>