<?xml version="1.0" encoding="UTF-8"?><svg id="Layer_2" xmlns="http://www.w3.org/2000/svg" viewBox="0 0 316.05 315.33"><g id="Layer_1-2"><path d="M149.88.22c127.35-6.49,210.42,135.09,141.03,243.03-60.2,93.65-196.94,96.47-261.66,6C-43.05,148.18,26.8,6.49,149.88.22ZM171.08,62.92h-34v51c-26.47-4.51-56.46,3-68.18,29.32-6.51,14.62-7.2,33.33-2.1,48.46,13.8,40.92,70.66,35.53,104.28,28.22V62.92ZM225.08,62.92h-34v35h34v-35ZM225.08,114.92h-34c-.82,25.77,1.08,51.79.04,77.54-.48,11.95-1.27,27.06-5.86,38.14-5.18,12.5-15.82,18.67-27.16,24.82l31.33,15.29c2.85-1.84,6.12-3.18,8.98-4.97,19.98-12.5,25.48-32.76,26.72-55.28,1.72-31.27-1.37-64.12-.04-95.54Z" style="fill:#092e20;"/><path d="M171.08,62.92v157c-33.62,7.31-90.49,12.71-104.28-28.22-5.1-15.13-4.4-33.84,2.1-48.46,11.72-26.32,41.7-33.83,68.18-29.32v-51h34ZM137.08,141.92c-22.37-5.64-40.48,4.95-38.54,29.44,1.84,23.21,17.38,28.49,38.54,24.56v-54Z" style="fill:#fff;"/><path d="M225.08,114.92c-1.33,31.43,1.76,64.27.04,95.54-1.24,22.52-6.74,42.78-26.72,55.28-2.85,1.78-6.13,3.13-8.98,4.97l-31.33-15.29c11.34-6.15,21.98-12.32,27.16-24.82,4.59-11.08,5.38-26.19,5.86-38.14,1.04-25.76-.86-51.77-.04-77.54h34Z" style="fill:#fff;"/><rect x="191.08" y="62.92" width="34" height="35" style="fill:#fff;"/><path d="M137.08,141.92v54c-21.16,3.93-36.7-1.35-38.54-24.56-1.94-24.49,16.17-35.08,38.54-29.44Z" style="fill:#092e20;"/></g></svg>