<?xml version="1.0" encoding="UTF-8"?><svg id="Layer_2" xmlns="http://www.w3.org/2000/svg" viewBox="0 0 255.78 328.2"><g id="Layer_1-2"><path d="M75.64,32.6c.48.54,11.26,6.12,12.74,6.77,9.65,4.21,23.99,5.25,28.98,16-11.23,6.46-26.67-14.03-26.01,9.04.43,14.97,2.44,35.85,5.5,50.49,9.74,46.57,48.76,82.76,96.01,89.01,2.54-.44,8.37-11.03,15.1-12.02,2.87-.42,5.82-.26,5.44,3.41-.34,3.29-7.98,8.15-5.05,10.09,2.85,1.35,5.45-.61,8.39-.48,3.53.16,6.62,2.42,11.14,2,3.01-.28,5.37-2.72,5.99-2.73s4.06,2.57,7.05,2.72c3.45.18,12.63-3.24,14.29,1.62,3.39,9.91-9.6,8.85-16.08,10.59-1.89.51-3.28,2.3-4.48,2.56-1.89.41-6.99-1.19-10.69-.72-3.71.47-7.69,3.02-11.31,3.68-86.84,15.61-157.98-11.8-192.44-95.09-6.43-15.55-8.94-30.55-13.56-46.44-1.79-6.13-7.13-14.48-6.04-20.45s5.65-11.88,11.78-12.8c-5.37-9.99,2.83-9.03,8.36-12.13,7.48-4.19,1.17-9.77,2.35-12.56l9.22-8.94c.3-1.73-3.84-4.14-4.8-5.99-6.58-12.68,13.7-13.11,13.77-3.89.02,2.78-3.73,6.15-.49,8.6s10.71-.2,14.64,1.35c2.45,1.7-.63,5.65.89,7.04,3.92,3.57,12.73,2.19,17.03,5.05,2.11,1.4,1.52,3.35,2.28,4.21ZM29.4,5.86c1.76-.71,8.78,2.29,7.99-1.48-.73-3.51-8.34-3.38-7.99,1.48ZM53.39,34.87l.58-6.06-8.57-2.94c-.55,4.98,2.92,9.16,7.99,9ZM63.39,34.87l-24,5.99,10.58.77,2.9-2.75c2.26,1.51,3.7,6.97,6.99,5.98l1.54-5.99,2.98,2-.99-6ZM44.39,63.87c9.7-6.41,45.4-4.1,50.24-15.26.69-1.59,1.32-5.74-.74-5.74h-16.5l.99,7c-2.03.31-5.18-.22-5.61-2.46-.26-1.35,2.1-3.88-.83-3.49-15.54,2.06-29.91,9.39-45.56,10.96-.72,2.74,2.16,2.46,4,3.01l-1.98,2.49c7.26,3.74-.55,6.28-5.54,2.53-4.23-3.18.27-6.62-8.3-4.34-8.03,2.14-11.31,7.15-5.68,14.31.95-6.81-1.09-13.18,8.49-11.99.9,3.31-3.8,1.41-2.59,5.06.92,2.78,4.53,4.17,7.15,4.95l3.13-4.04,6.71-.91,2.06,2.89,10.55-4.96c-1.94-.23-10.5-3.47-8-5.99,4.1-.72,8.22,1.34,8,5.99ZM89.39,71.87c.05-4.26.53-8.84-1.94-12.58l-18.06,3.58,3,3.98c-2.78.65-5.96-1.37-8.45-1.03-1.9.26-2.62,2.07-4.3,2.83-1.1.49-2.96-.17-4.03.44-.46.26-.93,2.29-2.21,3.26-3.06,2.33-7.48,2.93-11,1.51-1.67,5.28,6.71,10.6.27,13.78-3.77,1.86-6.97-.08-8.24,5.72-2.94-1.46-2.74,2.16-1.14,4.1,1.41,1.71,5.93,1.72,8.1,2.39l.49-2.99,2.5,1.99-1.99-3.99,5,1.98-2.99-4.99,4.99,1.99-2.01-3.98c5.04-2.36,9.59-.96,14,2.49l-7.99-1.49,6,5.98-9-1.98,2,3.99-2.9.06-.11,4.95-4.99-1c1.68,4.34.47,7.63-.01,11.99-1.96,2.04-8.15-8.14-2-9.49-1.52-1.2-2.84-4.26-4.99-3.06l-3.97,4.12c-.41,1.83,3.75,3.06,4.91,5.09.9,1.58.01,3.13.58,4.29.73,1.47,2.92,2.49,3.91,4.13,2.18,3.62,1.37,10.95,7.55,4.43-2.36-2.89-7.58-3.94-6.98-8.5l2.9-.05c.21-3.52-.88-7.36,3.09-8.95l.5,9.99c1.51-1.47,4.46-2.62,5.83-3.95,1.29-1.25-.32-3.97,3.68-3.05.33-.22-4.08-6.22-.02-6.99l.49,2.85c2.65-2.42,10.03,7.3,10.15,8.67.08,1.01-1.88,2.72-.63,4.47-2.55-1.07-5.14.58-7.03-1.41-1.66-1.74-1.43-6.28-3.45-5.57-3.45,1.2,1.51,5.03,1.96,6.02.98,2.15.87,4.91-1.89,4.93l-4.58-.95c1.72,2.63,5.41,3.68,6.88,6.61,1.39,2.76.66,5.24,1.63,7.36,1.48,3.21,3.68.87,4.91,1,.64.07.79,4.26,2.59,1.29v-2.28c4.61-.21,7.44,4.84,8,8.99,3.14-1.57-1.32-5.81-1-7.99,3.04,2.32,9.06,7.07,7.86,11.29-.93,3.25-5.79,1.86-4.86,4.2,1.91,4.79,14.84,3.9,15.56,13.45l-1.59,2.6-4.97.45c13.16,4.1,24.12,10.94,32.99,21.52l-5.99,2.48,8.99.02-1.99,3.5,2.06,1.04-1.07,3.44c2.14,1.45,5.53-.13,6.99.48,4.57,1.9,2.18,10.88,12.01.53l-.98,4c13.01-9.51,28.54,9.6,42.99,4.99-2.39-3.5-8.67-2.34-11.97-4.52-1.67-1.1-1.91-3.24-2.12-3.39-.18-.12-2.55,1.09-4.27.9-7.77-.85-11.67-8.21-17.43-10.88-7.43-3.45-17.54-4.73-22.66-13.13-1.26-2.07-1.24-4.63-2.1-5.9-5.3-7.75-12.93-15.45-17.45-24.06l-2,.51-.98,3.49c.51-5.76-2.67-7.17-6.98-9.5.81-1.47,2.73-3.08,2.73-4.81.01-6.77-7.84-19.69-6.76-27.7l-2.26,1.26.26,3.73h-3c-.08-1.91-.09-3.96.66-5.76.48-1.17,5.26-3.23,3.33-5.23-1.21-1.25-4.46,3.53-4.98,2.99l-1-7,3.01,2.99c5.05-2.77.26-8.05,0-10.53-.44-4.25,3.46-11.94-1.52-16.44-7.58,10.62-7.64-2.73-4.49-9.02,3.35-.18,2.07,4.21,5.98,3ZM24.39,114.86l-4.01-9.98c-2.9,1.37,1.98,5.7,1,7.99l-4-6.99c-1.6-.28-1.07,1.32-.79,2.28.95,3.27,6.41,14.55,8.28,17.73.64,1.09,1.02,2.75,2.51,2.98l-5.98-13.52,2.99-.49ZM59.72,136.56c-2.14-3.13-.78-7.86-3.83-10.69-1.04,2.46,2.29,4.97-.98,6.96l-9.5-3.97c-.3,2.3.8,5.7,2.79,6.96,1.11.7,13.89,7.03,14.7,7.02,4.35-.08-2.96-5.95-3.18-6.28ZM41.7,157.56c-1.07-1.55-1.35-3.55-2.47-5.04-2.2-2.94-4.67-6.16-7.01-8.99-.73-.89-1.97-3.23-1.82-.19l23.47,35.53c2.58,2.55,20.81,20.74,23.51,17.98.1-5.4-6.28-5.68-9.5-7.98-2.93-2.09-3.62-5.76-4.77-6.74-10.17-8.57-13.74-13.49-21.41-24.58ZM69.39,147.88l-8-2,.99,2.99c-1.5-1.14-5.02.09-4.98,1.51.01.58,5.66,8.21,6.98,9l-1.99,1.48,12.99,6c-2.05-3.06-3.63-6.85-5.6-9.88-.74-1.13-5.23-3.1-2.82-6.16.9-1.14,3.24-.25,2.43-2.94ZM68.4,172.87c-.78,5.69,16.02,7.84,15.98,4.49-2.03-1.72-14.66-5.64-15.98-4.49ZM214.39,209.88c-6.32.4-15.93-3.75-21,.98,6.48-1.73,16.24,3.53,21-.98ZM179.39,222.87c-4.5-1-9.44,1.09-13.49,1.07-3.32-.01-6.32-1.91-9.1-1.99-6.43-.2-11.4.72-18.77-.23-13.25-1.71-23.26-6.66-35.64-10.85l2.52,3.88c5.93,2.3,12,4.54,18.25,5.84,11.31,2.36,31.46,5.27,42.77,5.31,2.8,0,8.95-.68,11.97-1.03,1.49-.18,3.04-.8,1.47-2Z"/><path d="M214.39,300.87c1.3,1.34,15.47-10.55,15.91-11.59,1.44-3.35-3.61-3.3-5.92-3.42l.98-4.55,25.08,1,.95,4.56c-9.09-.5-18.25,4.51-22.87,12.33,3.91,6.11,11.71,18.88,18.45,21.58,3.66,1.47,9.92.09,8.45,5.56-.49,1.82-15.51,2.06-18.02,1.01-1.41-.59-6-6.81-7.42-8.58-1.86-2.32-8.24-12.95-10.06-12.93-6.45.08-7.38,12.65-3.49,15.49.7.51,11.93,2.87,7.97,5.06l-26.02,1.48c-1.5-6.14,5.07-3.86,5.98-8.52l-.9-62.05-7.07-5.91,15.67-8.37,2.32,1.36v56.5Z"/><path d="M54.39,249.87l-2.13,15.86-3.72-.03c-.73-3.46-4.86-9.83-8.65-9.83h-19l-1.5,1.5v27.5h16.5c4.89,0,2.05-13.8,8.34-7.34-.99,6.46-.05,13.49-.79,19.89-.15,1.27-.16,2.84-1.56,3.44-3.33,1.43-3.3-4.34-4.63-6.36-3.84-5.86-11.9-3.02-17.86-3.63v27.5c0,3.73,8.38,3.82,10.98,5.02l1.02,3.48H4.89c-1.22,0-6.34,1.49-4.5-2.49,1.01-2.19,6.82-.24,7.94-7.06,2.66-16.25-1.91-39.02.11-55.99-.07-5.68-8.63-5.88-8.05-11.45h54Z"/><path d="M132.08,283.19c5.49,5.02.1,26.86,2.48,34.01,1.26,3.79,5.79,1.07,8.18,1.77l1.65,2.38c-3.28,3.64-9.87,8.14-14.78,5.79-1.94-.93-1.66-3.34-3.68-3.37-2.99-.05-7.24,3.48-11.11,4.01-8.1,1.12-17.19-1.75-16.47-11.4.79-10.72,18.98-12.89,26.92-15.66,1.07-5.55.27-15.21-7.41-14.8-3.66.2-4.5,5.68-6.48,7.41-7.24,6.34-17.34-2.18-2.35-9.35,5.8-2.77,17.93-5.49,23.06-.8ZM123.11,306.04c-19.37,1.96-17.55,22.59,1.8,12.85l-.49-12.59-1.31-.25Z"/><path d="M91.33,322.93l.06,3.93-25.34,1.08c-4.26-4.6,4.41-4.8,5.31-9.6-1.18-17.37,1.66-36.91.06-54.01-.21-2.31-.39-4.33-1.62-6.38-1.76-2.95-6.74-3.6-6.46-5.58.19-2.42,14.63-9.32,15.55-9.25.75.06,1.49,1.14,1.97,1.76l.54,72.46c.79,4.22,6.25,5.55,9.92,5.59Z"/><path d="M186.39,293.86c-5.48,1.27-5.41-2.31-8.64-4.85-9.15-7.22-20.58.51-12.72,6.72,7.28,5.76,22.87,5.57,22.4,19.6-.53,15.76-24.5,14.05-34.92,10.4l-.13-11.87c4.8-1.19,5.25,3.99,9.04,6.46,4.89,3.18,14.51,4.54,16.79-2.18,1.23-8.34-19.82-10.45-23.08-18.53-6.57-16.3,10.69-19.98,22.74-18.74,8.64.89,6.7,5.95,8.5,12.99Z"/><path d="M89.39,71.87c-3.92,1.21-2.64-3.18-5.98-3-3.15,6.28-3.09,19.64,4.49,9.02,4.98,4.5,1.08,12.19,1.52,16.44.26,2.48,5.05,7.77,0,10.53l-3.01-2.99,1,7c.52.54,3.77-4.24,4.98-2.99,1.93,1.99-2.85,4.05-3.33,5.23-.74,1.81-.73,3.85-.66,5.77h3s-.26-3.74-.26-3.74l2.26-1.26c-1.08,8.01,6.77,20.93,6.76,27.7,0,1.73-1.92,3.33-2.73,4.81,4.31,2.33,7.49,3.74,6.98,9.5l.98-3.49,2-.51c4.52,8.61,12.15,16.31,17.45,24.06.87,1.26.84,3.83,2.1,5.9,5.12,8.4,15.23,9.68,22.66,13.13,5.76,2.67,9.66,10.03,17.43,10.88,1.72.19,4.09-1.03,4.27-.9.22.15.46,2.29,2.12,3.39,3.3,2.18,9.58,1.02,11.97,4.52-14.45,4.61-29.98-14.5-42.99-4.99l.98-4c-9.83,10.34-7.44,1.37-12.01-.53-1.46-.61-4.85.97-6.99-.48l1.07-3.44-2.06-1.04,1.99-3.5-8.99-.02,5.99-2.48c-8.87-10.58-19.83-17.42-32.99-21.52l4.97-.45,1.59-2.6c-.72-9.55-13.66-8.66-15.56-13.45-.93-2.33,3.93-.95,4.86-4.2,1.2-4.21-4.82-8.96-7.86-11.29-.31,2.18,4.14,6.42,1,7.99-.56-4.15-3.39-9.2-8.01-8.99v2.28c-1.8,2.97-1.94-1.23-2.58-1.29-1.23-.13-3.43,2.22-4.91-1-.98-2.13-.25-4.6-1.63-7.36-1.47-2.93-5.15-3.99-6.88-6.61l4.58.95c2.76-.03,2.88-2.79,1.89-4.93-.45-.99-5.41-4.82-1.96-6.02,2.02-.71,1.8,3.83,3.45,5.57,1.89,1.99,4.48.34,7.03,1.41-1.25-1.75.71-3.46.63-4.47-.11-1.37-7.5-11.09-10.15-8.67l-.49-2.85c-4.06.78.35,6.77.02,6.99-4-.92-2.39,1.81-3.68,3.05-1.37,1.33-4.33,2.48-5.83,3.95l-.5-9.99c-3.96,1.59-2.88,5.43-3.09,8.95l-2.9.05c-.6,4.55,4.62,5.61,6.98,8.5-6.18,6.52-5.37-.8-7.55-4.43-.98-1.64-3.18-2.67-3.91-4.13-.57-1.15.32-2.71-.58-4.29-1.16-2.03-5.32-3.26-4.91-5.09l3.97-4.12c2.15-1.19,3.47,1.86,4.99,3.06-6.15,1.35.04,11.53,2,9.49.49-4.36,1.69-7.66.01-11.99l4.99,1,.11-4.95,2.9-.06-2-3.99,9,1.98-6-5.98,7.99,1.49c-4.41-3.45-8.96-4.85-14-2.49l2.01,3.98-4.99-1.99,2.99,4.99-5-1.98,1.99,3.99-2.5-1.99-.49,2.99c-2.17-.68-6.69-.68-8.1-2.39-1.6-1.94-1.8-5.56,1.14-4.1,1.27-5.8,4.47-3.85,8.24-5.72,6.44-3.18-1.94-8.5-.27-13.78,3.52,1.42,7.94.82,11-1.51,1.28-.97,1.76-3.01,2.21-3.26,1.07-.6,2.93.06,4.03-.44,1.68-.76,2.4-2.56,4.3-2.83,2.49-.35,5.68,1.68,8.45,1.03l-3-3.98,18.06-3.58c2.47,3.74,1.99,8.32,1.94,12.58ZM60.38,89.87c-.7-5.19-4.57-7.45-7.98-11,.12,6.11,2.26,9.09,7.98,11ZM80.72,105.54c-.4-.57-1.29-5.47-2.84-2.69-2.26,4.04.03,12.3,4.02,15,3.18-2.73,1.58-4.62,1.04-7.45-.15-.76.61-1.98.31-2.88-.4-1.22-2.02-1.28-2.52-1.98Z" style="fill:#fff;"/><path d="M44.39,63.87c.22-4.65-3.9-6.71-8-5.99-2.5,2.52,6.06,5.77,8,5.99l-10.55,4.96-2.06-2.89-6.71.91-3.13,4.04c-2.61-.78-6.23-2.17-7.15-4.95-1.21-3.65,3.49-1.75,2.59-5.06-9.58-1.19-7.54,5.18-8.49,11.99-5.63-7.15-2.35-12.17,5.68-14.31,8.57-2.29,4.06,1.15,8.3,4.34,4.99,3.76,12.8,1.22,5.54-2.53l1.98-2.49c-1.84-.55-4.71-.27-4-3.01,15.65-1.57,30.02-8.9,45.56-10.96,2.92-.39.57,2.14.83,3.49.42,2.24,3.58,2.77,5.61,2.46l-.99-7h16.5c2.06,0,1.43,4.15.74,5.74-4.84,11.16-40.54,8.85-50.24,15.26ZM63.39,50.85c-3.13-4.31-13.74-1.24-16,3,5.58-2.42,10.34-1.96,16-3Z" style="fill:#fff;"/><path d="M41.7,157.56c7.67,11.08,11.24,16,21.41,24.58,1.15.97,1.84,4.64,4.77,6.74,3.22,2.3,9.6,2.59,9.5,7.98-2.69,2.76-20.93-15.43-23.51-17.98l-23.47-35.53c-.15-3.04,1.08-.7,1.82.19,2.34,2.82,4.81,6.04,7.01,8.99,1.12,1.49,1.4,3.5,2.47,5.04Z" style="fill:#fff;"/><path d="M69.39,147.88c.82,2.69-1.53,1.8-2.43,2.94-2.4,3.06,2.09,5.02,2.82,6.16,1.97,3.03,3.56,6.82,5.6,9.88l-12.99-6,1.99-1.48c-1.32-.8-6.97-8.42-6.98-9-.04-1.42,3.48-2.64,4.98-1.51l-.99-2.99,8,2Z" style="fill:#fff;"/><path d="M59.72,136.56c.22.32,7.53,6.2,3.18,6.28-.81.02-13.59-6.31-14.7-7.02-2-1.26-3.09-4.66-2.79-6.96l9.5,3.97c3.27-1.99-.06-4.5.98-6.96,3.05,2.83,1.69,7.57,3.83,10.69Z" style="fill:#fff;"/><path d="M63.39,34.87l.99,6-2.98-2-1.54,5.99c-3.28.99-4.73-4.48-6.99-5.98l-2.9,2.75-10.58-.77,24-5.99Z" style="fill:#fff;"/><path d="M179.39,222.87c1.57,1.2.02,1.82-1.47,2-3.02.36-9.18,1.04-11.97,1.03-11.31-.04-31.46-2.95-42.77-5.31-6.24-1.3-12.32-3.54-18.25-5.84l-2.52-3.88c12.38,4.18,22.39,9.14,35.64,10.85,7.37.95,12.34.03,18.77.23,2.78.09,5.78,1.98,9.1,1.99,4.05.01,8.99-2.07,13.49-1.07Z" style="fill:#fff;"/><path d="M24.39,114.86l-2.99.49,5.98,13.52c-1.49-.23-1.87-1.88-2.51-2.98-1.87-3.18-7.33-14.47-8.28-17.73-.28-.96-.81-2.56.79-2.28l4,6.99c.98-2.29-3.91-6.62-1-7.99l4.01,9.98Z" style="fill:#fff;"/><path d="M68.4,172.87c1.31-1.15,13.94,2.78,15.98,4.49.05,3.35-16.76,1.2-15.98-4.49Z" style="fill:#fff;"/><path d="M53.39,34.87c-5.07.16-8.54-4.02-7.99-9l8.57,2.94-.58,6.06Z" style="fill:#fff;"/><path d="M214.39,209.88c-4.76,4.52-14.52-.75-21,.98,5.07-4.73,14.68-.58,21-.98Z" style="fill:#fff;"/><path d="M29.4,5.86c-.34-4.86,7.26-4.99,7.99-1.48.78,3.77-6.23.77-7.99,1.48Z" style="fill:#fff;"/><path d="M80.72,105.54c.5.7,2.13.76,2.52,1.98.29.9-.46,2.12-.31,2.88.54,2.83,2.14,4.72-1.04,7.45-3.99-2.7-6.28-10.96-4.02-15,1.56-2.78,2.44,2.12,2.84,2.69Z"/><path d="M60.38,89.87c-5.72-1.91-7.86-4.89-7.98-11,3.41,3.55,7.28,5.81,7.98,11Z"/><path d="M63.39,50.85c-5.65,1.04-10.42.59-16,3,2.26-4.24,12.87-7.31,16-3Z"/></g></svg>