<?xml version="1.0" encoding="UTF-8"?><svg id="Layer_2" xmlns="http://www.w3.org/2000/svg" viewBox="0 0 672.93 721.85"><g id="Layer_1-2"><path d="M255.55,676.08c11.8-2.94,22.06-10.01,33.29-13.84l48.31,27.8,3.65-.21,175.11-100.92,3.44-4.56.26-201.83-1.16-4.84-171.22-99.78-9.19-3.91c-15.58,8.31-31.03,16.95-46.35,25.71-41.55,23.78-83.98,47.26-124.81,72.19-2.91,1.78-8.67,4.3-9.3,7.7l.41,206.56,1.27,1.97c14.99,7.21,28.9,17.57,43.62,25.11,17.84,9.14,37.57,14.5,46.61-8.73l.5-206.5c.45-1.34.85-3.09,1.99-4,2.27-1.82,25.91-2.24,28.52-.41.85.6,1.52,1.23,1.88,2.24l.62,209.75c-3.61,34.75-24.75,49.71-58.99,47.54-19.97-1.26-40.72-14.26-57.77-24.23-13.34-7.8-33.51-17.15-38.42-32.58-2.08-75.82-2.12-152.67.02-228.46,2.67-7.67,8.3-13.51,14.39-18.61l183.78-105.22c10.55-3.43,21.69-2.3,31.43,2.68l177.46,102.54c8.96,6.91,15.04,15.98,16.7,27.3l-.28,213.8c-2.41,7.38-5.38,14.52-10.87,20.13-49.77,29.94-99.96,59.79-150.57,88.43-20.98,11.87-43.55,30.56-68.32,19.68-16.41-7.21-43.23-24.76-59.13-34.87-1.74-1.1-8.75-4.96-6.87-7.61Z" style="fill:#80bd01;"/><path d="M449.54,1.57c.73-2.33,5.83-1.58,7.78-.81,1.11.44,1.22,1.96,2.47,2.6,9.03,4.66,20.43,9.56,28.67,15.29,2.48,1.72,5.12,2.82,5.87,6.13l.26,173.83c.21,3.86-1.79,6.21-4.71,8.29-12.67,8.98-31.01,15.23-43.08,25.14-5.58,1.21-13.48,8.56-18.24,9.58-2.89.62-17.98-8.28-21.71-10.36-13.86-7.72-28.36-15.83-41.84-24.16-1.38-.85-3.02-1.74-3.73-3.27l-.54-78.07,63.55-37.45c7.46-2.31,15.57,7.62,21.99,8.6,1.26.19,3.27-.31,3.27-1.34V1.57ZM405.8,177.82l21.42,12.06c1.23.06,20.53-11.38,21.31-12.32,1.39-1.68,1.67-23.65.52-25.51l-22.02-12.63c-4.09,2.75-21.11,10.33-22.28,14.36.27,4.62-1.6,21.31,1.05,24.04Z" style="fill:#333;"/><path d="M442.04,454.07c-4.95-11.8-6.9-23.19-19.5-29.5-15.4-7.7-58.43-8.47-72.95,1.04-7.71,5.05-10.86,13.74-8.83,22.75,1.51,6.72,14.58,10.94,20.56,12.44,39.55,9.88,117.06,1.69,119.27,58.73,2.66,69.04-101.7,73.27-146.72,52.72-22.7-10.36-38.27-33.67-33.08-58.94,1.66-1.66,26.36-1.94,28.78-.75,3.01,1.48,3.39,10.35,4.49,13.51,4.94,14.23,14.77,20,28.93,23.15,17.96,4,65.42,5.27,77.39-10.82,8.01-10.77,7.04-23.94-5.5-30.14-34.76-17.19-119.73-.79-128.81-52.17-7.98-45.22,27.99-66.37,67.93-68.04,39.71-1.67,86.57,2.72,97.53,48.65,1.14,4.8,2.91,13.59-.48,17.38h-29Z" style="fill:#80bd01;"/><path d="M285.18,106.45c.32.19.49,1.23,1.1,1.59,8.56,5.04,17.84,9.1,26.18,14.6l1.86,3.14.27,71.83-2.33,7.17c-13.13,6.89-26.13,14.16-39.05,21.45-5.76,3.25-20.27,14.15-26.16,13.9-13-5.94-25.39-14-37.85-21.25-3.88-2.26-7.82-4.65-11.42-6.79-4.21-2.5-12.98-5.82-15.86-9.01-1.53-1.69-1.29-5.27-1.42-7.46-1.07-18.52-1.69-48.99-.02-67.1.21-2.25.18-4.33,2.09-5.91,14.09-7.81,28.19-15.63,42.2-23.58.68-.39.85-1.58,2.02-2.25,2.59-1.47,19.16-10.64,20.3-10.72,2.72-.18,33.12,17.48,38.06,20.38Z" style="fill:#80bd01;"/><path d="M80.18,91.45c15.64,8.64,32.8,18.42,48.03,28.45,3.06,2.02,5.5.91,6.85,6.15l-.02,97.03-2.21,1.83h-3.57s-37.19-21.86-37.19-21.86c-1.16-1.28-1.36-2.81-1.55-4.45-1.71-14.52,1.68-31.76-.43-46.57l-4.22-4.78-17.74-9.18-18.96,10.14c-1.21.61-1.59,1.73-2.15,2.85-4.3,8.74.11,36.12-1.42,47.57-.36,2.69-1.73,3.61-3.03,5.69l-35.3,20c-4.11,2.1-7.14-.36-6.79-4.68,2.58-29.73-1.87-61.73-.02-91.05.11-1.74.17-3.4,1.19-4.89l63.86-37.14c5.17-1.85,10.18,2.43,14.66,4.91Z" style="fill:#333;"/><path d="M646.18,108.45c.3.18.48,1.2,1.12,1.58l24.15,13.64c1.88,2.93,1.89,25.63-.44,28.37l-34.23,19.77-7.63,1.33c-2.79-.77-.77-18.75-2.1-22.07-.47-.98-17.11-10.93-18.57-11.45s-2.66-.94-4.18-.35l-20.25,11.81c-.8,1.32-.9,19.83-.57,22.56.56,4.64,5.99,5.33,9.33,7.46,7.31,4.67,15.37,8.64,23.08,13.13,9.85,5.74,19.35,12.28,29.56,17.43,2.3,1.86,2.57,4.8.83,7.17l-37.01,20.47-4.14.78-64.66-36.43-.48-77.62c2.05-6.72,23.63-13.12,28.29-18.92,7.12-2.54,13.26-7.72,19.57-11.22,5.87-3.26,16.22-10.43,22.42-8.02,11.68,7.33,24.05,13.61,35.91,20.6Z" style="fill:#333;"/><path d="M664.96,280.66c25.43,31.23-15.43,71.83-46.33,48.83-41.12-30.62,14.48-87.95,46.33-48.83ZM631.27,274.3c-6.27,1.27-15.61,9.97-18.27,15.73-13.84,29.86,27.28,55.97,47.96,28.96,16.96-22.16-3.22-50.06-29.69-44.69Z" style="fill:#80bd01;"/><path d="M618.38,171.91l-12.25,6.17-12.43-6.17.32-16.86,11.84-6.8c.66.04,11.2,5.77,11.69,6.31,2.23,2.48.55,13.51.83,17.35Z" style="fill:#80bd01;"/><path d="M405.8,177.82c-2.65-2.74-.78-19.42-1.05-24.04,1.17-4.03,18.2-11.6,22.28-14.36l22.02,12.63c1.14,1.86.86,23.83-.52,25.51-.79.95-20.08,12.39-21.31,12.32l-21.42-12.06Z" style="fill:#fff;"/><path d="M631.27,274.3c26.47-5.37,46.65,22.53,29.69,44.69-20.68,27.01-61.8.9-47.96-28.96,2.67-5.76,12-14.45,18.27-15.73ZM646.04,283.07c-5.46-1.18-14.58.87-20.5,0v38h8v-15c14.21-2.07,9.48,5.13,12.14,14.86l7.85.13c-2.85-5.96.71-14.81-6-18.5v-1.47c7.99-1.98,5.83-16.44-1.49-18.02Z" style="fill:#fff;"/><path d="M646.04,283.07c7.32,1.58,9.49,16.04,1.51,18.02v1.47c6.7,3.69,3.14,12.54,5.99,18.5l-7.85-.13c-2.66-9.73,2.07-16.93-12.14-14.86v15h-8v-38c5.92.87,15.04-1.18,20.5,0ZM633.64,299.97c14.64,2.38,15.3-14.35-.15-10.43l.15,10.43Z" style="fill:#80bd01;"/><path d="M633.64,299.97l-.15-10.43c15.45-3.92,14.8,12.81.15,10.43Z" style="fill:#fff;"/></g></svg>