<?xml version="1.0" encoding="UTF-8"?><svg id="Layer_2" xmlns="http://www.w3.org/2000/svg" viewBox="0 0 428.65 381.42"><g id="Layer_1-2"><path d="M338.82,119.54c15.56,4.19,31.22,10.11,45.42,17.75,37.57,20.2,64.5,53.64,24.81,89.71-19.03,17.29-45.18,27.81-69.47,35.3,2.69,11.59,5.12,23.4,6.11,35.3,3.55,42.73-6.95,97.26-63.26,80.82-25.39-7.42-48.22-25.73-67.12-43.58-13.03,11.96-26.79,23.34-42.25,32.1-38.06,21.56-78.78,23.56-88.31-27.85-4.64-25.04-.5-51.15,5.08-75.66-16.66-5.17-33.12-11.33-48.19-20.15-36.36-21.28-60.67-54.84-21.89-89.57,19.2-17.19,45.78-27.3,70.19-34.58-1.89-10.48-4.43-20.85-5.67-31.45-5.63-47.96,5.29-104.82,67.74-82.25,23.53,8.51,44.5,25.12,62.59,41.98,17.99-17.06,39.3-34.35,62.97-42.75,56.01-19.88,70.55,27.55,67.75,73.09-.87,14.1-3.68,28-6.48,41.79ZM321.26,114.59c2.01-10.57,4.34-21.12,5.34-31.87,1.55-16.64,1.68-49.2-12.59-60.69-12.93-10.41-39.38,2.87-51.5,10.34s-24.05,17.55-34.98,27.64l.19.96c13.16,13.87,24.78,29.11,35.9,44.65,19.4,1.77,38.6,5,57.63,8.97ZM107.91,114.59c18.81-4.4,38.01-7.1,57.25-8.97,11.13-15.66,23.17-30.67,36.11-44.84l-.03-.76c-11.53-11.03-24.35-21.41-38.26-29.32-12.24-6.97-38.14-18.7-50.31-7.34-12.35,11.53-12.29,41.44-10.87,57.07,1.05,11.52,3.46,22.94,6.11,34.16ZM239.58,103.89c-7.56-10.78-16.23-20.73-25-30.52-8.94,9.75-17.62,19.8-25.38,30.52h50.38ZM175.19,258.36c11.05,1.54,22.49.8,33.65,1.66l25.99-.38,18.62-1.23c14.77-21.47,27.84-44.41,39.11-67.99-11.61-23.21-24.32-45.98-39.23-67.23-3.73-.34-7.51-.75-11.24-.97-16.54-.97-33.14-.7-49.64.01-5.7.24-11.39.35-17.09.76-14.71,21.63-28.11,44.31-39.11,68.07,11.36,23.35,24.43,45.82,38.96,67.31ZM151.42,125.65c-12.96,1.18-25.84,3.69-38.55,6.49l13.36,37.02,25.18-43.51ZM315.92,132.14c-12.88-2.58-25.83-5.35-38.93-6.49l25.38,43.5c5.06-12.1,10.12-24.34,13.55-37.02ZM95.3,136.73c-15.22,4.01-30.74,9.74-44.51,17.48-11.42,6.41-31.46,20.35-32.58,34.59-1.29,16.38,21.54,32.44,34.11,39.58s27.78,13.22,42.38,17.14c6.19-18.61,13.22-36.9,21.19-54.81-7.75-17.63-15.19-35.45-20.59-53.98ZM333.5,137.13c-5.19,18.44-12.97,36-20.55,53.53,8.2,17.23,15.52,34.91,21.26,53.14l.63.88c18.95-5.78,38.43-13.41,54.48-25.21,10.01-7.36,24.22-20.18,20.38-33.98-5.65-20.31-42.34-37.28-60.76-43.81-1.92-.68-14.77-5.11-15.44-4.54ZM316.68,249.69c-1.52-6.35-3.88-12.66-6.2-18.8-2.09-5.52-4.5-12.1-7.09-17.34-.29-.58-.52-1.43-1.21-1.65l-25.19,44.27,39.7-6.49ZM126.99,212.67c-.87-.18-.61.1-.85.49-1.39,2.22-2.96,7.07-4.01,9.72-3.52,8.89-6.44,17.99-9.62,27.01.24.44.56.43.95.55,3.16,1.01,7.79,1.57,11.17,2.19,9.12,1.67,18.34,2.91,27.55,3.93-8.95-14.28-17.86-28.7-25.2-43.89ZM322.02,266.87c-12.26,2.97-24.76,5.13-37.26,6.82-6.94.94-13.94,1.42-20.86,2.42-11.22,15.49-22.58,30.92-35.58,44.97v1.13c10.75,9.98,22,19.62,34.59,27.27,13.23,8.04,40.87,21.69,53.77,7.65,11.28-12.28,12.2-39.52,11.07-55.33-.84-11.78-3.23-23.43-5.73-34.93ZM107.55,268.04c-5.12,22.4-9.36,47.01-4.42,69.82,5.21,24.09,17.37,29.51,40.65,22.32,21.89-6.75,41.54-22.85,58.23-37.98l.13-.51c-13-14.48-25.41-29.53-36.61-45.47-19.5-1.55-38.81-4.55-57.98-8.18ZM239.96,277.56h-50.76c7.96,10.8,16.63,21.08,25.76,30.91,7.7-8.21,14.95-16.98,21.72-25.99.4-.53,3.63-4.62,3.28-4.92Z" style="fill:#61dbfb;"/><path d="M212.41,152.1c30.58-1.6,50.46,32.01,34.59,58.25-14.25,23.57-48.7,24.38-64.21,1.68-16.88-24.7-.14-58.38,29.62-59.93Z" style="fill:#61dbfb;"/></g></svg>