<?xml version="1.0" encoding="UTF-8"?><svg id="Layer_2" xmlns="http://www.w3.org/2000/svg" viewBox="0 0 323 231.41"><g id="Layer_1-2"><path d="M255,45.41c.45,1.32,12.66,10.2,15,13,.32.39.76.69,1,1,1.72,2.23,7.14,12.34,8,15,.4,1.22.72,7.71,1.01,8,1.7-.21,3.25-.93,4.99-1,1.99-.08,4,.04,6,0,.33,0,.67,0,1,0,1.33,0,2.67-.05,4,0,.33.01.67-.02,1,0,.99.06,2.02-.1,3,0,4.2.42,11.19,1.53,15,3,2.62,1.01,6.35,4.63,8,5-.44,5.5-3.73,10.74-7,15-.42.55-.59,1.54-1,2-6.54,7.34-20.34,13.93-30,15-3.78.42-8.04-.46-11.86.14-3.64,9.29-7.43,19.08-12.14,27.86-3.11,5.82-7.32,11.49-10.84,16.62-1.62,2.37-9.93,12.58-10.16,13.38-.08.28.05.65,0,1-2.11,2.51-14.33,12.33-15,14-.11.28.08.69,0,1-1.7.2-3.01,1.19-4.33,2.16-8.18,6.04-16.47,12.44-25.67,16.84-7.97,3.81-21.5,8.82-30,11-4.15,1.07-10.68,2.27-15,3-5.03.85-12.11-.12-16,3h-40c-5.46-3.08-13-1.87-19-3-4.92-.93-9.24-3.46-15-4-.66-.06-1.34.04-2,0-2.37-3.89-9.74-4.27-13-6-13.21-6.98-28.05-25.41-34-39-1.56-3.56-3.91-11.09-5-15-1.32-4.74-2.02-10.14-3-15-.74-3.67-.84-8.14-3-11v-21c4.01-7.5,7.25-7.59,15-8,4.95-.26,10.03.07,15,0s10.01.04,15,0,10.01.02,15,0,10.01.02,15,0,10.01.01,15,0,10.01.01,15,0,10.01.01,15,0,10.01.01,15,0,10.01.02,15,0,10.01.02,15,0,10.01.03,15,0,10.01.05,15,0,10.02.09,15,0,10.06.29,15,0c3.51-.21,20.1-1.95,20.93-5.6.18-.79-5.2-12.02-5.69-15.14-.7-4.52-.12-9.63-.24-14.26-.03-1,.02-2,0-3,2.42-3.39,2.46-8.21,4-12,1.66-4.07,6.1-13.69,11-14Z" style="fill:#2596ed;"/><path d="M180,1.41c0,4.32.06,8.68,0,13-.04,2.91.58,13.61-.44,15.06-1.16,1.67-11.74.9-14.56.94-4.97.06-10.03.1-15,0-1.7-.04-3.37-.99-4-1,.05-4.99-.07-10.01,0-15,.04-3.04-1.07-12.97,1.64-13.86,3.15-1.03,22.06-.33,26.91-.18,1.9.06,3.79-.09,5.45,1.04Z" style="fill:#2596ed;"/><path d="M30,73.41c4.99,0,10.01,0,15,0s10.01-.01,15,0c.07,0-.06,1,1,1-.03,4.99.05,10.01,0,15-.05,5.31-.45,8.97-1,14-5.11-.96-28.33,1.47-31.06-.44-1.21-.84-1.66-28.26-.68-29.37.39-.45,1.68-.1,1.75-.19Z" style="fill:#2596ed;"/><path d="M120,73.41c4.99,0,10.01,0,15,0,2.14,0,4.21,1,5,1-.05,4.99.07,10.01,0,15-.05,3.12.64,10.04-.14,12.36s-3.13,1.51-4.86,1.64c-3.62.27-26.56.51-27.56-.94-1.83-2.63.47-23.29-.44-28.06,3.4,0,8.6-.99,13-1Z" style="fill:#2596ed;"/><path d="M75,73.41c4.99.01,10.01-.01,15,0,3.52,0,7.64,1,10,1-.05,4.99.07,10.01,0,15-.03,2.42.81,14-1.5,14h-30c-1.1,0-1.43-2.44-1.55-3.45-.89-7.56.75-16.79.05-24.55v-1c1.68,0,5.02-1.01,8-1Z" style="fill:#2596ed;"/><path d="M150,73.41c4.99,0,10.01-.06,15,0,2.82.03,13.4-.73,14.56.94.95,1.37.47,12.28.44,15.06s.72,12.41-.94,13.56c-1.19.83-25.46.66-29.06.44-.94-.06-1.92.29-2.82-.14-1.75-1.27-1.14-11.13-1.18-13.86-.07-4.99.05-10.01,0-15,.59,0,2.29-1,4-1Z" style="fill:#2596ed;"/><path d="M195,73.41c4.97-.11,10.03-.06,15,0,3.36.04,6.82.92,9,1v28c-.98.98-1.01.9-2.4,1.05-3.52.4-26.76.53-28.96-.19-2.71-.89-1.6-10.82-1.64-13.86-.07-4.99.05-10.01,0-15,2.9-.29,5.36-.92,9-1Z" style="fill:#2596ed;"/><path d="M107,44.41c.07-2.33-.05-4.68,0-7.01h32.43c1.08.15.53,5.53.58,7.01.13,4.94.18,10.06,0,15s1.6,8.68-5,8-8.73-.24-15,0c-2.34.09-10.82.45-12.06-.43-1.65-2.12-.85-5.09-.94-7.57-.17-4.94-.14-10.06,0-15Z" style="fill:#2596ed;"/><path d="M99,37.41l.91.56c.28,2.14.01,4.31.09,6.44.17,4.94.14,10.06,0,15-.07,2.33.05,4.68,0,7.01-2.47.2-5.15-.32-7.59-.05-1.26.14-2.28,1.03-2.42,1.04-4.59.34-10.33.17-15,0-1.9-.07-5.73.49-7.07-.43-1.57-1.09-.86-5.55-.93-7.57-.17-4.9-.17-10.1,0-15,.08-2.14-.19-4.3.09-6.44.09-.64.53-.42.91-.56h31Z" style="fill:#2596ed;"/><path d="M180,38.41c-.04,2,.02,4,0,6-.04,4.98-.04,10.02,0,15,.02,2-.04,4,0,6-3.74,3.09-10.16,2.14-15,2-3.59-.1-8.01-1.11-12.58-1.04-1.28.02-2.29,1.03-2.42,1.04-4.72.18-3.84-5.04-4-8-.26-4.7-.21-10.28,0-15,.09-2.11-.84-6.04,1.64-6.86,3.05-1.02,22.13-.32,26.91-.18,1.9.06,3.78-.09,5.45,1.04Z" style="fill:#2596ed;"/></g></svg>