<?xml version="1.0" encoding="UTF-8"?><svg id="Layer_2" xmlns="http://www.w3.org/2000/svg" xmlns:xlink="http://www.w3.org/1999/xlink" viewBox="0 0 935.05 1037.34"><defs><linearGradient id="linear-gradient" x1="144.07" y1="194.6" x2="805.25" y2="855.79" gradientUnits="userSpaceOnUse"><stop offset="0" stop-color="#927ce5"/><stop offset="1" stop-color="#4d27c6"/></linearGradient></defs><g id="Layer_1-2"><path d="M934.69,649.55c.21-47.31.06-94.69,0-142-.05-43.32.25-86.69,0-130-.12-21.56,1.1-43.63-1-65-1.65-16.81-5.63-30.89-13-46-13.13-26.94-30.25-41.54-55-57-23.82-14.88-48.79-27.9-73-42-36.71-21.38-74.04-42.71-111-64-37.33-21.5-74.45-43.7-112-65-21.1-11.96-41.31-26.84-65-33.5-36.18-10.16-74.46-4.77-106.67,14.33-107.36,66.07-222.21,123.44-329,190-21.72,13.54-39.46,29.35-51.85,52.15C-2.34,297.42.96,327.27.69,366.55c-.3,42.98.06,86.02,0,129-.07,47.32-.18,94.69,0,142,.14,35.78-3.85,77.01,6,111,6.57,22.68,14.01,35.72,30,53,.32.35.68.66,1,1,3-.38,4.38.94,4,4,17.52,16.79,34.42,24.87,55,37,25.84,15.23,52.05,29.94,78,45,24.92,14.46,50.03,28.63,75,43,31.96,18.39,64,36.72,96,55,45.15,25.8,80.17,56.16,136.49,49.99,25.77-2.82,47.45-13.6,69.18-26.82,101.93-61.86,208.24-116.91,310-179,15.52-9.47,28.74-18.28,40.84-32.16,39.45-45.24,32.24-93.23,32.49-149.01ZM187.69,645.55c-25-33.3-19.77-63.79-20-103-.19-32.18-2.85-73.22.12-104.38,1.53-16.05,10.75-36.22,20.88-48.62,14.76-18.09,39.72-33.45,63-37,46.23-7.05,93.7,20.23,110,64,4.09,10.98,7.36,29.55,5.55,41.05-4.58,29.1-43.04,37.68-60.38,13.27-10.73-15.1-.95-31.53-18.7-45.3-20.33-15.78-51.3-3.09-53.51,22.44-3.94,45.61,3.03,96.83.03,143.04,5.12,27.9,40.92,37.73,58.98,14.97,8.22-10.36,5.69-17.2,8.32-28.68,4.76-20.74,28.42-31.32,47.38-21.98,1.08.53,8.79,5.64,9.32,6.18,17.74,17.92,5.81,57.1-5.58,75.92-23.15,38.25-70.32,56.66-113.42,44.08-20.52-5.99-39.22-18.98-52-36ZM666.7,689.07c-.61.41-1.23.83-1.88,1.24.65-.41,1.27-.83,1.88-1.24.54-.37,1.11-.61,1.62-.89-.5.29-1.08.52-1.62.89ZM736.19,551.55c24.09,0,38.84,29.06,27.5,50-3.28,6.05-15.55,17-22.5,17h-39.5v34.5c0,16.4-15.92,31.66-32,32.5-14,.73-35-12.36-35-27.5v-39.5h-67v39.5c0,1.05-2.86,7.89-3.61,9.39-7.45,14.69-27,22.38-42.39,16.11-9.1-3.71-21-18.44-21-28.5v-36.5c-6.65-.05-13.35.07-20,0-16.66-.18-29.56,1.23-40.44-14.06-14.4-20.23.26-52.94,24.94-52.94h35.5v-66c-4.32-.03-8.68.05-13,0-21.05-.23-49.2.4-52.92-27.59-2.12-15.99,9.81-39.41,27.42-39.41h38.5v-36.5c0-9.47,10.78-23.96,19.48-27.52,19.88-8.14,44.03,3.24,47.52,25.02.1.62-.06,1.35,0,2,3.97.21,4.72,5.08,0,4,.5,10.94-.37,22.05,0,33h67v-39.5c0-3.61,5.47-13.03,8.02-15.98,13.38-15.46,38.22-14.96,50.95,1,6.45,8.09,7.47,16.43,8.02,26.48.49,9.03.28,19.1-1,27.99,13.68,1.49,34.34-2.77,47,2.01,1.2.45,6.2,3.98,7.48,5.02,15.82,12.96,16.73,34.76,3.52,49.98-5.87,3.17-12.86,10-20.5,10h-36.5v66h34.5Z" style="fill:url(#linear-gradient);"/><path d="M41.69,806.55c-1.46-1.4-2.6-2.53-4-4,3-.38,4.38.94,4,4Z" style="fill:#7153dc;"/><path d="M361.69,416.55c4.09,10.98,7.36,29.55,5.55,41.05-4.58,29.11-43.04,37.68-60.38,13.27-10.73-15.1-.95-31.53-18.7-45.3-20.33-15.78-51.3-3.09-53.51,22.44-3.94,45.61,3.03,96.83.03,143.04,5.12,27.9,40.92,37.73,58.98,14.97,8.22-10.36,5.69-17.2,8.32-28.68,4.76-20.74,28.42-31.32,47.38-21.98,1.08.53,8.79,5.64,9.32,6.18,17.74,17.92,5.81,57.1-5.58,75.92-23.15,38.25-70.32,56.66-113.42,44.08-20.52-5.99-39.22-18.98-52-36-25-33.3-19.77-63.79-20-103-.19-32.18-2.85-73.22.12-104.38,1.53-16.05,10.75-36.22,20.88-48.62,14.76-18.09,39.72-33.45,63-37,46.23-7.05,93.7,20.23,110,64Z" style="fill:#fdfdfe;"/><path d="M567.69,379.55c.1.62-.06,1.35,0,2,.13,1.31-.06,2.68,0,4,.5,10.94-.37,22.05,0,33h67v-39.5c0-3.61,5.47-13.03,8.02-15.98,13.38-15.46,38.22-14.96,50.95,1,6.45,8.09,7.47,16.43,8.02,26.48.49,9.03.28,19.1-1,27.99,13.68,1.49,34.34-2.77,47,2.01,1.2.45,6.2,3.98,7.48,5.02,15.82,12.96,16.73,34.76,3.52,49.98-5.87,3.17-12.86,10-20.5,10h-36.5v66h34.5c24.09,0,38.84,29.06,27.5,50-3.28,6.05-15.55,17-22.5,17h-39.5v34.5c0,16.4-15.92,31.66-32,32.5-14,.73-35-12.36-35-27.5v-39.5h-67v39.5c0,1.05-2.86,7.89-3.61,9.39-7.45,14.69-27,22.38-42.39,16.11-9.1-3.71-21-18.44-21-28.5v-36.5c-6.65-.05-13.35.07-20,0-16.66-.18-29.56,1.23-40.44-14.06-14.4-20.23.26-52.94,24.94-52.94h35.5v-66c-4.32-.03-8.68.05-13,0-21.05-.23-49.2.4-52.92-27.59-2.12-15.99,9.81-39.41,27.42-39.41h38.5v-36.5c0-9.47,10.78-23.96,19.48-27.52,19.88-8.14,44.03,3.24,47.52,25.02ZM634.69,485.55h-67v66h67v-66Z" style="fill:#fdfdfe;"/><path d="M567.69,381.55c3.97.21,4.72,5.08,0,4-.06-1.32.13-2.69,0-4Z" style="fill:#785cde;"/><rect x="567.69" y="485.55" width="67" height="66" style="fill:#6e4fdb;"/></g></svg>