<?xml version="1.0" encoding="UTF-8"?><svg id="Layer_2" xmlns="http://www.w3.org/2000/svg" xmlns:xlink="http://www.w3.org/1999/xlink" viewBox="0 0 800 800"><defs><linearGradient id="linear-gradient" x1="351.37" y1="353.95" x2="772.93" y2="775.51" gradientUnits="userSpaceOnUse"><stop offset="0" stop-color="#ffda49"/><stop offset=".71" stop-color="#ffca34"/></linearGradient><linearGradient id="linear-gradient-2" x1="150.97" y1="147.77" x2="572.52" y2="569.32" gradientUnits="userSpaceOnUse"><stop offset="0" stop-color="#357cb3"/><stop offset=".71" stop-color="#336a96"/></linearGradient></defs><g id="Layer_1-2"><path d="M798.95,371.56c-.63-17.74-3.39-35.27-6.95-52.58-7.8-37.97-21.02-71.51-51.98-95.99-11.65-9.22-32.11-20-47.48-20h-74.47v105.48c-2.04,20.06-7.16,38.95-16.99,56.51-3.58,3.87-6.41,9.31-10.02,13.47-19.05,21.94-44.52,31.08-72.94,33.52-70.36,6.06-146.33-4.17-216.4,1.01-51.63,3.82-92.7,39.79-96.46,92.49-4.52,63.44,3.39,132.03-.05,196.01.84,11.34,4.09,19.58,9.03,29.46,17.8,35.57,51.45,48.9,87.96,58,21.7,5.41,45.59,9.68,67.97,11,2.64.16,5.35-.11,8,0h25.99c3.7-1.67,11.09-1.69,14.99,0h12.99l2.42-1.04c50.38-.34,158.52-19.48,158.52-86.45v-92.49c-15.65-.03-31.34.04-46.98,0-32.64-.08-65.32.07-97.96,0-16.65-.04-33.33.03-49.98,0v-27c44.3-.02,88.65.03,132.95,0,44.5-.03,91.27,1.87,135.49.04,81.67-3.38,116.96-55.98,129.24-131.7l4.16-33.33v-54l-1.05-2.41ZM506.12,667.96c30.35-1.95,49.44,34.54,29.5,58.01-20.83,24.51-62.39,10.49-61.48-23.01.48-17.69,13.49-33.81,31.99-35Z" style="fill:url(#linear-gradient);"/><path d="M579.09,56c-17.53-24.76-49.51-37.74-77.97-45-18.55-4.73-37.4-7.23-56.48-8.99-5.28-.49-11.44.63-16.49-2.01h-62.97l-1.59.92c-3.88-.23-7.6.75-11.4,1.08-44.54,3.83-117.78,14.49-138.8,60.64-1.25,2.75-5.14,13.49-5.14,15.86v101.49c4.65.03,9.34-.05,13.99,0,37.29.36,74.66-.05,111.95,0,22.64.03,45.33-.02,67.97,0v28c-47.63.02-95.31-.03-142.94,0-45.25.03-98.17-3.37-142.42.02C33.8,214.36,4.58,301.19.33,371.98c-1.04,17.3.77,35.59,0,53l1.04,2.42c-.48,11.74,2.24,23.23,3.95,34.58,6.38,42.38,18.11,84.43,51.98,112.99,38.02,32.06,78.84,19.72,124.95,22v-112.49c0-9.85,9.68-27.8,10-35.5.01-.32-3.21-3.42,2-4,.59-1.44,1.43-3.92,2-5-.21-2.14-.46-3.51,2-3,.9-1.71,2.33-1.97,3-5,.81-3.63.3-.94,1.73-3.26,1.13-1.82-.69-5.5,4.26-4.74.87-1.1,1.8-2.77,2-3,4.24-4.79,14.6-13.48,19.99-17,1.18-.77,3.72-2.28,5-3-.74-4,3.37-5.49,6-3,.77-.36,1.98-.57,3-1v-4s6,1,6,1c32.76-11.43,100.82-5.83,137.94-6,78.95-.36,200.83,17.25,207.96-94.45,2.29-35.86.08-77.1-.04-113.53-.13-39.74,7.49-90.83-15.99-123.99ZM273.22,126.99c-30.84-18.79-16.57-68.75,22.99-65,20.57,1.95,32.38,21.29,29.99,41-2.85,23.47-33.07,36.13-52.98,24Z" style="fill:url(#linear-gradient-2);"/><path d="M474.13,702.96c.48-17.69,13.49-33.81,31.99-35,30.35-1.95,49.44,34.54,29.5,58.01-20.83,24.51-62.39,10.49-61.48-23.01Z" style="fill:#fefefe;"/><path d="M296.21,62c20.57,1.95,32.38,21.29,29.99,41-2.85,23.47-33.07,36.13-52.98,24-30.84-18.79-16.57-68.75,22.99-65Z" style="fill:#fdfefe;"/></g></svg>