<?xml version="1.0" encoding="UTF-8"?><svg id="Layer_2" xmlns="http://www.w3.org/2000/svg" viewBox="0 0 320 320"><g id="Layer_1-2"><path d="M175.13,0l30.19,6.28c51.84,15.24,93.19,56.62,108.4,108.5l6.28,30.22v31c-2.27,10.25-3.71,20.67-6.73,30.76-15.28,51.06-56.93,91.96-107.95,106.95l-30.19,6.28h-30.97c-10.24-2.27-20.65-3.71-30.74-6.74-50.44-15.12-91.78-56.68-106.64-107.27-2.89-9.85-4.26-20.01-6.5-30,.66-10.37-.89-21.77,0-32C6.68,70.83,71.04,6.4,144.16,0h30.97ZM243.68,120.62c18.71-20.49,29.43-56.21.25-72.98-51.3-29.5-162.23,22.21-182.46,75.1-15.15,39.6,35.94,61.42,59.71,82.25-17.28,7.84-49.57,26.85-51.95,47.51-4.36,37.82,36.45,33.3,56.48,15.53,17.58-15.59,21.21-37.86,15.46-60.02,17.15-4.18,47.22-1.04,54.44,18,2.3,6.07,1.9,11.64-2.04,16.93-1.63,2.19-9.59,5.89-7.44,8.05,3.51,3.52,14.53-7.53,16.17-11.31,7.46-17.21-7.52-35.58-23.19-41.17-15.42-5.5-29.53-2.95-45.21-.68-20.34-21.11-63.72-37.16-47.18-73.84,12.06-26.74,64.92-54.56,92.41-61.51,20.17-5.1,70.34-10.1,64.51,23.57-5.96,34.41-69.43,64.71-99.79,48.77-2.35-1.23-13.57-12.41-11-3.03,2.85,10.39,18.89,17.46,28.77,18.25,28.94,2.29,62.23-7.68,82.07-29.42Z" style="fill:#cc669a;"/><path d="M243.68,120.62c-19.84,21.73-53.13,31.71-82.07,29.42-9.87-.78-25.91-7.85-28.77-18.25-2.57-9.37,8.65,1.8,11,3.03,30.36,15.94,93.82-14.36,99.79-48.77,5.84-33.66-44.34-28.66-64.51-23.57-27.49,6.95-80.35,34.77-92.41,61.51-16.54,36.68,26.84,52.73,47.18,73.84,15.68-2.27,29.79-4.82,45.21.68,15.67,5.59,30.65,23.95,23.19,41.17-1.64,3.78-12.66,14.83-16.17,11.31-2.16-2.16,5.81-5.86,7.44-8.05,3.94-5.29,4.34-10.86,2.04-16.93-7.21-19.05-37.29-22.18-54.44-18,5.75,22.16,2.12,44.42-15.46,60.02-20.03,17.77-60.84,22.3-56.48-15.53,2.38-20.66,34.67-39.67,51.95-47.51-23.77-20.83-74.86-42.65-59.71-82.25,20.23-52.89,131.16-104.6,182.46-75.1,29.17,16.77,18.45,52.49-.25,72.98ZM126.85,214.14c-3.74.34-24.36,15.8-27.7,19.31-13.17,13.84-18.56,41.49,8.71,27.72,11.85-5.99,21.9-21.35,22.32-34.72.08-2.38-.43-12.58-3.33-12.32Z" style="fill:#fdfbfc;"/></g></svg>